<?xml version="1.0" standalone="no"?><!DOCTYPE svg PUBLIC "-//W3C//DTD SVG 1.1//EN" "http://www.w3.org/Graphics/SVG/1.1/DTD/svg11.dtd"><svg t="1554950184223" class="icon" style="" viewBox="0 0 1024 1024" version="1.1" xmlns="http://www.w3.org/2000/svg" p-id="9087" xmlns:xlink="http://www.w3.org/1999/xlink" width="200" height="200"><defs><style type="text/css"></style></defs><path d="M0 0h1024v1024H0z" fill="#02C49F" p-id="9088"></path><path d="M175.542857 604.16h40.667429V643.657143H175.542857v-39.497143z m119.954286-81.92h59.684571c8.777143 0 16.091429-2.486857 21.942857-7.460571 5.851429-4.973714 8.777143-12.141714 8.777143-21.504 0-10.532571-2.633143-17.934629-7.899428-22.235429s-12.873143-6.436571-22.820572-6.436571H295.497143v57.636571z m-36.571429-87.478857h101.522286c18.724571 0 33.733486 4.3008 45.056 12.873143 11.322514 8.572343 16.969143 21.562514 16.969143 38.912 0 10.532571-2.574629 19.543771-7.753143 27.062857a49.737143 49.737143 0 0 1-22.089143 17.408v0.585143c12.873143 2.720914 22.615771 8.835657 29.257143 18.285714s9.947429 21.2992 9.947429 35.547429c0 8.192-1.462857 15.857371-4.388572 22.966857s-7.519086 13.253486-13.750857 18.432a69.076114 69.076114 0 0 1-23.990857 12.288c-9.742629 3.013486-21.357714 4.534857-34.816 4.534857H258.925714v-208.896z m36.571429 179.053714h64.658286c11.117714 0 19.748571-2.8672 25.892571-8.630857 6.144-5.763657 9.216-13.897143 9.216-24.429714 0-10.327771-3.072-18.285714-9.216-23.844572s-14.774857-8.338286-25.892571-8.338285H295.497143v65.243428z m168.813714-179.053714h51.492572l57.636571 163.547428h0.585143l56.173714-163.547428h50.907429V643.657143h-34.816v-161.206857h-0.585143L587.776 643.657143h-30.134857l-57.929143-161.206857h-0.585143V643.657143h-34.816v-208.896z m260.681143 0h92.16c14.833371 0 26.916571 2.135771 36.278857 6.436571s16.5888 9.654857 21.650286 16.091429 8.543086 13.458286 10.386286 21.065143c1.8432 7.606857 2.779429 14.628571 2.779428 21.065143s-0.936229 13.399771-2.779428 20.918857-5.3248 14.482286-10.386286 20.918857-12.288 11.761371-21.650286 15.945143-21.445486 6.290286-36.278857 6.290285h-55.588571V643.657143h-36.571429v-208.896z m36.571429 98.889143h53.540571c4.096 0 8.279771-0.585143 12.580571-1.755429 4.3008-1.170286 8.250514-3.072 11.849143-5.705143 3.598629-2.633143 6.524343-6.144 8.777143-10.532571a35.986286 35.986286 0 0 0 3.364572-16.530286c0-6.816914-0.965486-12.4928-2.925715-16.969143s-4.593371-8.045714-7.899428-10.678857a27.8528 27.8528 0 0 0-11.410286-5.412571 62.522514 62.522514 0 0 0-13.750857-1.462857h-54.125714v69.046857z" fill="#FFFFFF" p-id="9089"></path></svg>