<?xml version="1.0" standalone="no"?><!DOCTYPE svg PUBLIC "-//W3C//DTD SVG 1.1//EN" "http://www.w3.org/Graphics/SVG/1.1/DTD/svg11.dtd"><svg t="1554950228623" class="icon" style="" viewBox="0 0 1024 1024" version="1.1" xmlns="http://www.w3.org/2000/svg" p-id="13479" xmlns:xlink="http://www.w3.org/1999/xlink" width="200" height="200"><defs><style type="text/css"></style></defs><path d="M512 1006.08c-272.384 0-494.08-221.696-494.08-494.08S239.616 17.92 512 17.92s494.08 221.696 494.08 494.08-221.696 494.08-494.08 494.08z" fill="#FFFFFF" p-id="13480"></path><path d="M512 20.48c270.848 0 491.52 220.672 491.52 491.52s-220.672 491.52-491.52 491.52-491.52-220.672-491.52-491.52S241.152 20.48 512 20.48m0-5.12C237.568 15.36 15.36 237.568 15.36 512s222.208 496.64 496.64 496.64 496.64-222.208 496.64-496.64-222.208-496.64-496.64-496.64z" fill="#666666" p-id="13481"></path><path d="M714.752 765.44c-40.448 20.992-90.624 31.744-151.04 31.744-78.336 0-140.8-25.088-187.392-74.752-46.592-49.664-70.144-115.712-70.144-197.12 0-88.064 26.112-158.72 78.848-212.48s119.296-80.384 200.704-80.384c52.224 0 95.232 7.168 129.536 22.016v73.728c-38.912-21.504-81.92-32.256-128.512-32.256-60.928 0-110.592 20.48-148.992 60.928s-57.344 95.232-57.344 164.352c0 65.536 17.92 117.248 53.76 155.648s82.432 57.856 140.288 57.856c54.272 0 100.864-12.288 140.8-36.864v67.584z" fill="#666666" p-id="13482"></path></svg>