<?xml version="1.0" standalone="no"?><!DOCTYPE svg PUBLIC "-//W3C//DTD SVG 1.1//EN" "http://www.w3.org/Graphics/SVG/1.1/DTD/svg11.dtd"><svg t="1554950997680" class="icon" style="" viewBox="0 0 1024 1024" version="1.1" xmlns="http://www.w3.org/2000/svg" p-id="30482" xmlns:xlink="http://www.w3.org/1999/xlink" width="200" height="200"><defs><style type="text/css"></style></defs><path d="M198.339 17.56h627.322c83.833 0 151.794 67.96 151.794 151.794V276.08H46.546V169.354c0-83.833 67.96-151.794 151.794-151.794z" fill="#43A6F1" p-id="30483"></path><path d="M949 118.185c0-25.505-20.356-46.19-45.49-46.19H110.127c-25.119 0-45.49 20.685-45.49 46.19v789.851c0 25.505 20.371 46.175 45.49 46.175H903.51c25.135 0 45.49-20.669 45.49-46.175V118.185z m62.06 789.851c0 60.306-48.144 109.19-107.551 109.19H110.126c-59.392 0-107.551-48.884-107.551-109.19V118.185c0-60.306 48.159-109.206 107.551-109.206h793.383c59.408 0 107.551 48.9 107.551 109.206v789.851z" fill="#1C252B" p-id="30484"></path><path d="M218.297 512c19.202 0 35.166 4.858 47.659 15.038 12.03 9.717 19.434 23.135 21.979 39.793h-24.523c-2.776-11.105-8.097-19.434-15.963-24.755s-17.583-7.866-29.613-7.866c-17.814 0-31.233 6.015-40.256 18.277-8.56 11.105-12.724 26.374-12.724 45.577 0 19.896 4.164 35.166 12.493 46.039 8.791 11.568 22.441 17.352 40.95 17.352 12.03 0 22.21-3.008 30.076-9.023 8.329-6.478 14.113-16.195 17.352-29.151h24.523c-3.702 19.202-12.262 34.24-25.912 45.114-12.724 10.18-27.994 15.269-45.808 15.269-27.068 0-47.427-8.791-61.077-25.912-12.03-14.807-17.814-34.703-17.814-59.689 0-24.523 6.015-44.42 18.508-59.921 13.881-17.583 33.778-26.143 60.152-26.143z m97.399 3.239h24.986V658.91h90.922v21.516H315.696V515.24z m184.158 0h28.688l63.622 165.186h-27.068l-15.501-42.569h-71.026l-15.501 42.569h-26.837l63.622-165.186z m-13.65 101.796h55.756l-27.3-74.727h-0.925l-27.531 74.727zM666.197 512c19.202 0 34.24 3.933 45.114 12.262 11.568 8.56 18.046 21.747 19.665 39.793H705.99c-2.314-10.642-6.478-18.508-12.956-23.135-6.478-4.858-15.732-7.172-28.225-7.172-10.874 0-19.202 1.619-24.986 4.858-7.172 3.702-10.642 9.717-10.642 18.046 0 7.403 3.933 13.187 12.262 17.583 3.702 2.082 13.187 5.552 28.688 10.18 22.21 6.941 36.785 12.262 43.263 16.195 14.113 8.56 21.285 20.359 21.285 35.628 0 14.807-5.784 26.374-17.352 34.934-11.568 8.329-27.762 12.493-48.584 12.493-20.128 0-35.86-4.164-47.196-12.03-13.65-9.717-21.053-24.986-22.441-45.808h24.986c1.851 12.956 6.478 22.441 13.881 27.994 6.709 5.09 16.889 7.635 30.77 7.635 12.493 0 22.441-2.314 29.845-6.478s11.105-9.948 11.105-17.352c0-9.254-5.321-16.426-15.732-21.747-3.702-1.851-14.575-5.552-32.852-11.105-20.359-6.478-32.852-10.874-37.942-13.65-12.724-7.635-18.971-18.74-18.971-33.084 0-14.575 6.015-25.912 18.277-34.24 11.568-7.866 26.143-11.799 43.726-11.799z m149.686 0c19.202 0 34.24 3.933 45.114 12.262 11.568 8.56 18.046 21.747 19.665 39.793h-24.986c-2.314-10.642-6.478-18.508-12.956-23.135-6.478-4.858-15.732-7.172-28.225-7.172-10.874 0-19.202 1.619-24.986 4.858-7.172 3.702-10.642 9.717-10.642 18.046 0 7.403 3.933 13.187 12.262 17.583 3.702 2.082 13.187 5.552 28.688 10.18 22.21 6.941 36.785 12.262 43.263 16.195 14.113 8.56 21.285 20.359 21.285 35.628 0 14.807-5.784 26.374-17.352 34.934-11.568 8.329-27.762 12.493-48.584 12.493-20.128 0-35.86-4.164-47.196-12.03-13.65-9.717-21.053-24.986-22.441-45.808h24.986c1.851 12.956 6.478 22.441 13.881 27.994 6.709 5.09 16.889 7.635 30.77 7.635 12.493 0 22.441-2.314 29.845-6.478s11.105-9.948 11.105-17.352c0-9.254-5.321-16.426-15.732-21.747-3.702-1.851-14.575-5.552-32.852-11.105-20.359-6.478-32.852-10.874-37.942-13.65-12.724-7.635-18.971-18.74-18.971-33.084 0-14.575 6.015-25.912 18.277-34.24 11.568-7.866 26.143-11.799 43.726-11.799zM974.119 291.833H27.695c-8.58 0-15.515-7.042-15.515-15.754 0-8.696 6.935-15.754 15.515-15.754h946.424c8.564 0 15.515 7.058 15.515 15.754 0 8.712-6.951 15.754-15.515 15.754zM136.301 185.107h-15.515c-8.58 0-15.515-7.042-15.515-15.754 0-8.696 6.935-15.754 15.515-15.754h15.515c8.564 0 15.515 7.058 15.515 15.754 0 8.712-6.951 15.754-15.515 15.754zM244.907 185.107h-15.515c-8.58 0-15.515-7.042-15.515-15.754 0-8.696 6.935-15.754 15.515-15.754h15.515c8.564 0 15.515 7.058 15.515 15.754 0 8.712-6.951 15.754-15.515 15.754zM353.513 185.107h-15.515c-8.58 0-15.515-7.042-15.515-15.754 0-8.696 6.935-15.754 15.515-15.754h15.515c8.564 0 15.515 7.058 15.515 15.754 0 8.712-6.951 15.754-15.515 15.754z" fill="#1C252B" p-id="30485"></path></svg>