<?xml version="1.0" standalone="no"?><!DOCTYPE svg PUBLIC "-//W3C//DTD SVG 1.1//EN" "http://www.w3.org/Graphics/SVG/1.1/DTD/svg11.dtd"><svg t="1554950289859" class="icon" style="" viewBox="0 0 1024 1024" version="1.1" xmlns="http://www.w3.org/2000/svg" p-id="18184" xmlns:xlink="http://www.w3.org/1999/xlink" width="200" height="200"><defs><style type="text/css"></style></defs><path d="M906.24 316.8v-3.84a28.14976 28.14976 0 0 0-7.04-12.8l-256-256a28.14976 28.14976 0 0 0-12.8-7.04h-428.8c-46.65344-0.35328-84.76672 37.18144-85.12 83.83488v782.08512c0 46.65856 37.82144 84.48 84.48 84.48h621.44c46.65856 0 84.48-37.82144 84.48-84.48V320a27.21792 27.21792 0 0 0-0.64-3.2z m-95.36-24.32H651.52v-160l159.36 160z m11.52 640H201.6a28.16 28.16 0 0 1-28.16-28.16v-783.36a28.16 28.16 0 0 1 28.16-28.16h393.6V320a28.16 28.16 0 0 0 28.16 28.16h227.84v554.88a28.15488 28.15488 0 0 1-28.15488 28.16512l-0.64512-0.00512v1.28z" fill="#51D9A1" p-id="18185"></path><path d="M411.25376 677.10976c-8.38144 38.87104-37.6832 67.17952-89.86112 67.17952-66.06848 0-97.3056-46.76096-97.3056-106.03008 0-57.11872 32.2304-108.29824 99.46624-108.29824 55.48032 0 82.3808 32.56832 87.46496 67.39456h-45.056c-4.34688-16.06656-15.52896-32.06656-43.84768-32.06656-37.15584 0-51.50208 33.42336-51.50208 71.33696 0 35.22048 12.45184 72.33536 52.71552 72.33536 29.39392 0 38.67648-19.69152 42.5984-31.8464h45.32736zM445.95712 532.97664h86.1952c44.27264 0 74.32704 24.91904 74.32704 64.51712 0 45.2608-34.26816 66.03264-75.37664 66.03264h-40.05376v77.81376h-45.09184v-208.36352z m45.09184 94.68928h34.38592c20.84864 0 35.584-8.02304 35.584-29.29664 0-21.49376-15.54944-29.53216-34.64704-29.53216h-35.328v58.8288zM640.384 532.97664h86.1952c44.27264 0 74.32704 24.91904 74.32704 64.51712 0 45.2608-34.26816 66.03264-75.37664 66.03264h-40.05376v77.81376h-45.09184v-208.36352z m45.08672 94.68928h34.38592c20.84864 0 35.584-8.02304 35.584-29.29664 0-21.49376-15.54944-29.53216-34.64704-29.53216h-35.328v58.8288z" fill="#51D9A1" p-id="18186"></path></svg>