<?xml version="1.0" standalone="no"?><!DOCTYPE svg PUBLIC "-//W3C//DTD SVG 1.1//EN" "http://www.w3.org/Graphics/SVG/1.1/DTD/svg11.dtd"><svg t="1553512828018" class="icon" style="" viewBox="0 0 1024 1024" version="1.1" xmlns="http://www.w3.org/2000/svg" p-id="6953" xmlns:xlink="http://www.w3.org/1999/xlink" width="200" height="200"><defs><style type="text/css"></style></defs><path d="M906.581333 202.695111h-162.645333v83.342222h162.645333V202.695111z m116.280889 583.850667c-0.113778-206.506667-0.341333-413.013333 0.227556-619.690667-0.796444-20.195556 0.568889-42.609778-11.377778-60.245333-17.066667-11.946667-38.684444-10.581333-58.311111-11.377778-116.280889 0.568889-232.561778 0.341333-348.842667 0.341333V0.341333H535.552C357.262222 32.597333 178.972444 63.886222 0.682667 95.687111v833.080889c177.265778 31.800889 354.645333 62.293333 531.740444 95.232h72.135111v-107.121778c120.433778-0.227556 240.924444 0.341333 361.244445 0 19.399111-0.853333 48.469333-1.422222 53.134222-26.168889 7.054222-34.133333 3.356444-69.518222 3.925333-104.163555zM342.812444 698.481778c-19.797333-49.664-43.804444-97.621333-58.026666-149.504-15.758222 48.355556-38.286222 93.866667-56.433778 141.255111a2744.888889 2744.888889 0 0 1-76.288-2.503111c29.866667-59.847111 58.595556-120.206222 89.429333-179.768889-26.168889-61.269333-54.840889-121.344-81.806222-182.328889l76.686222-4.551111c17.294222 46.648889 36.238222 92.558222 50.574223 140.288 15.303111-50.631111 38.172444-98.190222 57.799111-147.114667 26.282667-1.934222 52.622222-3.584 79.018666-4.892444A24839.509333 24839.509333 0 0 1 329.955556 504.433778c31.971556 66.673778 64.568889 132.835556 96.654222 199.509333-27.989333-1.706667-55.864889-3.413333-83.854222-5.461333z m645.12 182.670222h-383.431111v-71.395556h92.956445v-83.342222h-92.899556v-47.616h92.899556v-83.285333h-92.899556V547.84h92.899556V464.554667h-92.899556V416.995556h92.899556V333.653333h-92.899556v-47.616h92.899556V202.695111h-92.899556V131.299556h383.317334v749.852444z m-81.351111-547.498667h-162.645333v83.285334h162.645333V333.653333z m0 130.901334h-162.645333v83.342222h162.645333V464.554667z m0 130.958222h-162.645333v83.285333h162.645333v-83.285333z m0 130.901333h-162.645333v83.342222h162.645333v-83.342222z" fill="#55CD9A" p-id="6954"></path></svg>