<?xml version="1.0" standalone="no"?><!DOCTYPE svg PUBLIC "-//W3C//DTD SVG 1.1//EN" "http://www.w3.org/Graphics/SVG/1.1/DTD/svg11.dtd"><svg t="1554950736888" class="icon" style="" viewBox="0 0 1024 1024" version="1.1" xmlns="http://www.w3.org/2000/svg" p-id="26909" xmlns:xlink="http://www.w3.org/1999/xlink" width="200" height="200"><defs><style type="text/css"></style></defs><path d="M203.14 946c-33.71 0-61.14-27.21-61.14-60.67V138.67C142 105.21 169.43 78 203.14 78h437.6a60.28 60.28 0 0 1 42.9 17.77L863.9 276a60.26 60.26 0 0 1 17.77 42.9v566.4c0 33.46-27.43 60.67-61.14 60.67z" fill="#E5F9EB" p-id="26910"></path><path d="M640.74 92a46.36 46.36 0 0 1 33 13.67L854 285.93a46.37 46.37 0 0 1 13.67 33v566.4c0 25.74-21.15 46.67-47.14 46.67H203.14c-26 0-47.14-20.93-47.14-46.67V138.67C156 112.93 177.15 92 203.14 92h437.6m0-28h-437.6C161.64 64 128 97.43 128 138.67v746.66c0 41.24 33.64 74.67 75.14 74.67h617.39c41.5 0 75.14-33.43 75.14-74.67v-566.4a74.69 74.69 0 0 0-21.87-52.8L693.54 85.87A74.7 74.7 0 0 0 640.74 64z" fill="#03C53E" p-id="26911"></path><path d="M640 64v170.67A85.34 85.34 0 0 0 725.33 320H896zM199.48 462.38h39.67v78h75v-78h39.4v198.33h-39.4V575h-75v85.76h-39.67zM415 495.35h-55.79v-33H510.9v33h-56.28v165.36H415zM516.26 462.38h44L594 555.12c4.29 12.32 8 25.46 12.06 38.32h1.34c4.29-12.86 7.77-26 12.06-38.32l33-92.74h44v198.33h-36.28V577.9c0-18.77 2.94-46.37 4.82-65.13h-1.07l-16.08 46.63-30.56 83.35h-22.78l-30.82-83.35-15.81-46.63h-1.07c1.88 18.76 5.09 46.36 5.09 65.13v82.81h-35.64zM718.33 462.38H758v165.1h80.4v33.23H718.33z" fill="#03C53E" p-id="26912"></path></svg>