<?xml version="1.0" standalone="no"?><!DOCTYPE svg PUBLIC "-//W3C//DTD SVG 1.1//EN" "http://www.w3.org/Graphics/SVG/1.1/DTD/svg11.dtd"><svg t="1554950317599" class="icon" style="" viewBox="0 0 1024 1024" version="1.1" xmlns="http://www.w3.org/2000/svg" p-id="21806" xmlns:xlink="http://www.w3.org/1999/xlink" width="200" height="200"><defs><style type="text/css"></style></defs><path d="M519.536473 594.235935l-23.462795-49.713249c0.46461-0.232305 42.279492-29.967332 31.128857-58.30853-3.716878-9.756806-9.059891-17.887477-15.099819-27.179673-15.796733-24.392015-35.54265-39.027223-32.987295-105.001815 3.949183-96.406534 157.735027-167.027223 175.157894-174.693285l3.019964 63.651543c-44.370236 19.978221-117.778584 66.206897-119.637023 113.597096-1.858439 47.3902 9.989111 49.945554 23.695099 71.085299 6.736842 10.453721 14.402904 22.30127 20.210527 37.401089 22.998185 58.540835-30.199637 108.718693-62.025409 129.161525z m0 0" fill="#FFEA00" p-id="21807"></path><path d="M413.140829 531.513612c-4.646098-2.323049-66.439201-58.540835-66.439201-173.996371 0-87.811252 57.37931-130.555354 112.900181-172.137931C477.024677 172.370236 495.144459 158.896552 511.870412 143.796733c54.591652-49.016334 26.482759-118.475499 25.088929-121.263158l53.662432-22.533575c1.858439 4.413793 46.228675 109.647913-39.724138 186.540835-18.816697 16.958258-37.865699 31.128857-56.450091 45.06715-57.37931 42.744102-89.669691 69.69147-89.669691 126.141561 0 80.377495 55.056261 137.292196 55.985481 137.524501l-47.622505 36.239565z m0 0" fill="#FFEA00" p-id="21808"></path><path d="M260.981119 706.439201c-21.836661 12.544465-37.865699 28.805808-31.361161 51.339383 6.039927 21.372051 36.239564 34.14882 67.136116 41.117968-18.352087 10.91833-34.61343 28.805808-32.522686 52.500907 4.878403 52.733212 120.333938 54.127042 121.495463 54.127042h223.941924l9.756805-58.30853H385.728851c-12.544465 0-40.653358-4.413793-57.611615-9.292196l-7.201452-18.352087 7.201452 18.119782-13.70599-35.310345c18.352087 3.019964 35.54265 4.181488 45.996371 4.181488h3.949183c43.673321-1.626134 265.989111-9.756806 265.989111-9.756805l12.776769-57.611616s-237.183303 7.201452-280.856624 8.827587c-16.261343 0.46461-34.381125-2.090744-49.480944-5.575318l-13.009074-32.290381c18.584392 1.393829 39.491833 2.090744 63.419237 2.090744 26.250454 0 274.584392-9.292196 285.502723-9.524501l15.099818-56.682396c-90.598911 3.252269-280.624319 7.898367-300.602541 7.898367-48.319419 0-98.264973-5.110708-126.14156-11.84755 22.068966-8.130672 59.005445-16.493648 93.851179-20.675136l-6.969147-58.076225c-107.557169 12.77677-161.916515 39.956443-161.916515 80.842105-0.232305 13.473684 0 48.319419 98.961887 62.257713zM799.928488 587.266788c-28.805808-29.735027-71.782214-19.513612-84.791289-14.402904l-12.079855 62.722323c22.068966-8.595281 52.268603-3.484574 58.30853 2.090744 8.362976 7.898367 15.332123 19.745917 14.635209 39.491833-0.46461 13.938294-5.343013 24.624319-14.170599 31.825771-37.401089 29.967332-87.811252 53.197822-88.508167 53.662432l-17.422867 74.802178c3.252269-1.626134 99.658802-48.551724 142.402904-82.700544 22.068966-17.655172 34.845735-44.370236 36.007259-75.034483 1.393829-34.61343-13.473684-70.852995-34.381125-92.45735z" fill="#0DB538" p-id="21809"></path><path d="M753.932118 849.306715l-22.533576 53.894737c12.079855 5.110708 23.462795 14.170599 26.250454 19.281307-5.575318 9.059891-31.825771 33.219601-95.245009 39.027223-86.417423 7.898367-365.880218 3.949183-428.370236-4.181488-33.684211-4.413793-60.166969-23.462795-68.529946-34.845735 19.049002-9.989111 56.217786-15.796733 79.215971-16.958258l-19.978221-56.450091c-8.130672 0.46461-62.257713 2.555354-99.194192 29.735027-17.190563 12.77677-24.392015 32.754991-18.816697 53.430127 9.989111 38.562613 63.883848 75.731397 120.101633 82.93285 41.117967 5.343013 165.865699 8.827586 276.442831 8.827586 67.600726 0 129.858439-1.393829 164.47187-4.413793 102.446461-9.292196 148.907441-61.328494 149.139746-95.245009-0.232305-47.3902-56.682396-72.246824-62.954628-75.034483z" fill="#0DB538" p-id="21810"></path></svg>