<?xml version="1.0" standalone="no"?><!DOCTYPE svg PUBLIC "-//W3C//DTD SVG 1.1//EN" "http://www.w3.org/Graphics/SVG/1.1/DTD/svg11.dtd"><svg t="1554950197191" class="icon" style="" viewBox="0 0 1024 1024" version="1.1" xmlns="http://www.w3.org/2000/svg" p-id="10605" xmlns:xlink="http://www.w3.org/1999/xlink" width="200" height="200"><defs><style type="text/css"></style></defs><path d="M0 0h1024v1024H0z" fill="#02C49F" p-id="10606"></path><path d="M195.730286 604.16h40.667428V643.657143H195.730286v-39.497143z m196.022857-27.794286c0 9.157486-0.789943 18.051657-2.340572 26.624a57.812114 57.812114 0 0 1-9.508571 23.113143c-4.768914 6.816914-11.702857 12.288-20.772571 16.384-9.069714 4.096-21.123657 6.144-36.132572 6.144-11.117714 0-20.567771-1.696914-28.379428-5.12a52.662857 52.662857 0 0 1-19.309715-14.043428 55.939657 55.939657 0 0 1-11.117714-21.211429 96.548571 96.548571 0 0 1-3.510857-26.624v-11.117714h36.571428v10.825143c0 11.907657 1.989486 21.123657 5.997715 27.648 4.008229 6.524343 11.556571 9.801143 22.674285 9.801142 5.851429 0 10.678857-0.877714 14.482286-2.633142a21.269943 21.269943 0 0 0 9.069714-7.753143c2.2528-3.423086 3.744914-7.665371 4.534858-12.726857 0.789943-5.061486 1.170286-10.825143 1.170285-17.261715v-143.652571h36.571429v141.604571z m44.470857-141.604571h92.16c14.833371 0 26.916571 2.135771 36.278857 6.436571s16.5888 9.654857 21.650286 16.091429c5.061486 6.436571 8.543086 13.458286 10.386286 21.065143 1.8432 7.606857 2.779429 14.628571 2.779428 21.065143s-0.936229 13.399771-2.779428 20.918857-5.3248 14.482286-10.386286 20.918857c-5.061486 6.436571-12.288 11.761371-21.650286 15.945143s-21.445486 6.290286-36.278857 6.290285h-55.588571V643.657143h-36.571429v-208.896z m36.571429 98.889143h53.540571c4.096 0 8.279771-0.585143 12.580571-1.755429 4.3008-1.170286 8.250514-3.072 11.849143-5.705143 3.598629-2.633143 6.524343-6.144 8.777143-10.532571s3.364571-9.888914 3.364572-16.530286c0-6.816914-0.965486-12.4928-2.925715-16.969143a27.384686 27.384686 0 0 0-7.899428-10.678857 27.8528 27.8528 0 0 0-11.410286-5.412571 62.522514 62.522514 0 0 0-13.750857-1.462857h-54.125714v69.046857zM813.641143 643.657143h-23.405714l-5.558858-24.576c-9.742629 11.117714-19.514514 18.812343-29.257142 23.113143-9.742629 4.3008-20.977371 6.436571-33.645715 6.436571a98.362514 98.362514 0 0 1-41.984-8.630857c-12.375771-5.763657-22.879086-13.604571-31.451428-23.552s-15.1552-21.562514-19.748572-34.816a128.731429 128.731429 0 0 1-6.875428-42.422857c0-14.833371 2.282057-28.8768 6.875428-42.130286 4.593371-13.253486 11.176229-24.868571 19.748572-34.816 8.572343-9.947429 19.075657-17.846857 31.451428-23.698286 12.375771-5.851429 26.389943-8.777143 41.984-8.777142 11.322514 0 22.089143 1.521371 32.329143 4.534857 10.24 3.013486 19.368229 7.519086 27.355429 13.458285s14.628571 13.399771 19.894857 22.381715c5.266286 8.981943 8.572343 19.309714 9.947428 31.012571h-35.693714a45.845943 45.845943 0 0 0-6.290286-17.993143 45.2608 45.2608 0 0 0-12.141714-13.019428 53.160229 53.160229 0 0 0-16.384-7.899429 67.876571 67.876571 0 0 0-19.017143-2.633143c-11.117714 0-20.714057 2.2528-28.818285 6.729143-8.104229 4.476343-14.687086 10.474057-19.748572 17.993143s-8.835657 16.032914-11.264 25.6-3.657143 19.309714-3.657143 29.257143 1.2288 19.690057 3.657143 29.257143 6.202514 18.080914 11.264 25.6 11.644343 13.5168 19.748572 17.993143c8.104229 4.476343 17.700571 6.729143 28.818285 6.729142 9.362286 0.2048 17.642057-1.024 24.868572-3.657142s13.312-6.436571 18.285714-11.410286c4.973714-4.973714 8.718629-11.0592 11.264-18.285714 2.545371-7.226514 3.8912-15.213714 4.096-23.990858h-55.588571v-27.794285h88.941714V643.657143z" fill="#FFFFFF" p-id="10607"></path></svg>