<?xml version="1.0" standalone="no"?><!DOCTYPE svg PUBLIC "-//W3C//DTD SVG 1.1//EN" "http://www.w3.org/Graphics/SVG/1.1/DTD/svg11.dtd"><svg t="1553671678908" class="icon" style="" viewBox="0 0 1024 1024" version="1.1" xmlns="http://www.w3.org/2000/svg" p-id="9447" xmlns:xlink="http://www.w3.org/1999/xlink" width="200" height="200"><defs><style type="text/css"></style></defs><path d="M0 512C0 229.23 229.168 0 512 0c282.77 0 512 229.168 512 512 0 282.77-229.168 512-512 512C229.23 1024 0 794.832 0 512z m307.2 40.96c22.622 0 40.96-18.338 40.96-40.96s-18.338-40.96-40.96-40.96-40.96 18.338-40.96 40.96 18.338 40.96 40.96 40.96z m204.8 0c22.622 0 40.96-18.338 40.96-40.96s-18.338-40.96-40.96-40.96-40.96 18.338-40.96 40.96 18.338 40.96 40.96 40.96z m204.8 0c22.622 0 40.96-18.338 40.96-40.96s-18.338-40.96-40.96-40.96-40.96 18.338-40.96 40.96 18.338 40.96 40.96 40.96z" fill="#3AD68F" p-id="9448"></path></svg>