<?xml version="1.0" standalone="no"?><!DOCTYPE svg PUBLIC "-//W3C//DTD SVG 1.1//EN" "http://www.w3.org/Graphics/SVG/1.1/DTD/svg11.dtd"><svg t="1553598390432" class="icon" style="" viewBox="0 0 1024 1024" version="1.1" xmlns="http://www.w3.org/2000/svg" p-id="7884" xmlns:xlink="http://www.w3.org/1999/xlink" width="200" height="200"><defs><style type="text/css"></style></defs><path d="M296.421053 269.473684h191.056842v39.343158H296.421053V269.473684zM296.421053 377.263158h267.479579v39.343158H296.421053V377.263158zM296.421053 161.684211h267.479579v39.343157H296.421053V161.684211z" fill="#0ED7C1" p-id="7885"></path><path d="M823.511579 985.680842H193.643789c-32.121263 0-57.344-27.863579-57.344-60.901053L135.437474 60.038737C135.437474 27.001263 160.606316 1.024 192.781474 1.024h444.362105c13.797053 0 27.162947 5.012211 37.618526 14.174316l186.799158 196.284631c11.802947 10.186105 18.432 27.809684 18.432 45.487158l0.862316 669.642106c0 33.091368-25.222737 59.068632-57.344 59.068631zM192.781474 40.367158a20.372211 20.372211 0 0 0-20.048842 20.641684l0.91621 864.633263c0 11.371789 8.946526 20.641684 19.994947 20.641684H823.511579a20.372211 20.372211 0 0 0 19.994947-20.587789L842.644211 256a20.857263 20.857263 0 0 0-7.114106-15.791158L648.784842 44.032A19.779368 19.779368 0 0 0 637.143579 40.421053H192.781474z" fill="#0ED7C1" p-id="7886"></path><path d="M855.632842 262.090105H626.364632V25.869474h38.211368v196.823579h191.056842zM296.421053 801.414737h73.889684v-157.480421H296.421053v157.480421z m18.485894-131.233684h36.917895v104.986947h-36.917895v-104.986947zM499.604211 801.414737v-209.973895H425.714526v209.973895h73.943579z m-55.457685-183.727158h36.97179v157.480421h-36.97179v-157.480421zM555.115789 801.414737H628.951579V538.947368H555.061895v262.467369z m18.485895-236.220632h36.917895v209.973895h-36.917895v-209.973895z" fill="#0ED7C1" p-id="7887"></path></svg>