<?xml version="1.0" standalone="no"?><!DOCTYPE svg PUBLIC "-//W3C//DTD SVG 1.1//EN" "http://www.w3.org/Graphics/SVG/1.1/DTD/svg11.dtd"><svg t="1553598353547" class="icon" style="" viewBox="0 0 1024 1024" version="1.1" xmlns="http://www.w3.org/2000/svg" p-id="4306" xmlns:xlink="http://www.w3.org/1999/xlink" width="200" height="200"><defs><style type="text/css"></style></defs><path d="M312.2 376.6h-40.6V455h38.7c23.2 0.4 38.7-3.4 46.4-11.4s11.5-17.4 11.5-28.3c0-25.7-18.7-38.7-56-38.7z m263.6 21.2c-10.5-8.3-22.8-13.9-37-16.8-14.2-2.9-35-4.3-62.6-4.3H460v185.6h26.6c27.7 0 47.8-1.4 60.3-4.2 12.5-2.8 23.4-8.3 32.8-16.5 9.4-8.2 16.5-18.2 21.4-29.9 4.9-11.7 7.4-25.2 7.4-40.3 0-15.1-2.8-29.1-8.5-41.9-5.7-12.9-13.7-23.4-24.2-31.7zM707.4 79H229.8c-39.5 0-71.8 32.3-71.8 71.8v725.5c0 39.5 32.3 71.8 71.8 71.8h565.4c39.5 0 71.8-32.3 71.8-71.8v-634L707.4 79z m-328 375.1c-8.5 10-19.3 16.4-32.2 19-12.9 2.7-32.7 4-59.4 4h-16.3V584h-23V354.2h45.8c27.1 0 44.8 1.1 53.1 3.2 8.3 2.1 15.9 5.9 22.9 11.2 6.9 5.3 12.3 12 16.2 20s5.8 16.9 5.8 26.7c-0.1 15.9-4.4 28.8-12.9 38.8z m238.2 76.6c-9.3 17.6-21.9 30.9-37.8 39.8-15.9 9-38.8 13.4-68.6 13.4h-73.3V354.2h47.7c32.6 0 56.6 2.4 71.8 7.2 15.2 4.8 28.4 12.4 39.5 22.7 11.1 10.4 19.6 23 25.6 37.9 6 14.9 9 32.4 9 52.3 0 20.1-4.6 38.8-13.9 56.4zM791.2 377H699v71.7h92.2v22.7H699V584h-23V354.2h115.2V377z" fill="#00B592" p-id="4307"></path><path d="M706.6 78.8h-0.4l0.4 115.8c0.1 26.6 21.9 48.4 48.4 48.3l112.1-0.4L706.6 78.8z" fill="#0EE0B8" p-id="4308"></path></svg>