<?xml version="1.0" standalone="no"?><!DOCTYPE svg PUBLIC "-//W3C//DTD SVG 1.1//EN" "http://www.w3.org/Graphics/SVG/1.1/DTD/svg11.dtd"><svg t="1554950204346" class="icon" style="" viewBox="0 0 1024 1024" version="1.1" xmlns="http://www.w3.org/2000/svg" p-id="11410" xmlns:xlink="http://www.w3.org/1999/xlink" width="200" height="200"><defs><style type="text/css"></style></defs><path d="M0 0h1024v1024H0z" fill="#02C49F" p-id="11411"></path><path d="M177.298286 604.16h40.667428V643.657143H177.298286v-39.497143z m83.382857-169.398857h92.16c14.833371 0 26.916571 2.135771 36.278857 6.436571s16.5888 9.654857 21.650286 16.091429 8.543086 13.458286 10.386285 21.065143c1.8432 7.606857 2.779429 14.628571 2.779429 21.065143s-0.936229 13.399771-2.779429 20.918857c-1.8432 7.519086-5.3248 14.482286-10.386285 20.918857s-12.288 11.761371-21.650286 15.945143-21.445486 6.290286-36.278857 6.290285h-55.588572V643.657143H260.681143v-208.896z m36.571428 98.889143h53.540572c4.096 0 8.279771-0.585143 12.580571-1.755429 4.3008-1.170286 8.250514-3.072 11.849143-5.705143s6.524343-6.144 8.777143-10.532571 3.364571-9.888914 3.364571-16.530286c0-6.816914-0.965486-12.4928-2.925714-16.969143-1.960229-4.476343-4.593371-8.045714-7.899428-10.678857s-7.109486-4.447086-11.410286-5.412571a62.522514 62.522514 0 0 0-13.750857-1.462857h-54.125715v69.046857z m157.110858-98.889143h38.619428l95.378286 153.892571h0.585143v-153.892571h34.816V643.657143H585.142857l-95.085714-153.6h-0.877714V643.657143h-34.816v-208.896zM849.334857 643.657143h-23.405714l-5.558857-24.576c-9.742629 11.117714-19.514514 18.812343-29.257143 23.113143-9.742629 4.3008-20.977371 6.436571-33.645714 6.436571a98.362514 98.362514 0 0 1-41.984-8.630857 92.452571 92.452571 0 0 1-31.451429-23.552 105.793829 105.793829 0 0 1-19.748571-34.816 128.731429 128.731429 0 0 1-6.875429-42.422857c0-14.833371 2.282057-28.8768 6.875429-42.130286 4.593371-13.253486 11.176229-24.868571 19.748571-34.816 8.572343-9.947429 19.075657-17.846857 31.451429-23.698286s26.389943-8.777143 41.984-8.777142c11.322514 0 22.089143 1.521371 32.329142 4.534857 10.24 3.013486 19.368229 7.519086 27.355429 13.458285s14.628571 13.399771 19.894857 22.381715c5.266286 8.981943 8.572343 19.309714 9.947429 31.012571h-35.693715a45.845943 45.845943 0 0 0-6.290285-17.993143 45.2608 45.2608 0 0 0-12.141715-13.019428 53.160229 53.160229 0 0 0-16.384-7.899429 67.876571 67.876571 0 0 0-19.017142-2.633143c-11.117714 0-20.714057 2.2528-28.818286 6.729143-8.104229 4.476343-14.687086 10.474057-19.748572 17.993143s-8.835657 16.032914-11.264 25.6-3.657143 19.309714-3.657142 29.257143 1.2288 19.690057 3.657142 29.257143 6.202514 18.080914 11.264 25.6 11.644343 13.5168 19.748572 17.993143c8.104229 4.476343 17.700571 6.729143 28.818286 6.729142 9.362286 0.2048 17.642057-1.024 24.868571-3.657142s13.312-6.436571 18.285714-11.410286 8.718629-11.0592 11.264-18.285714 3.8912-15.213714 4.096-23.990858h-55.588571v-27.794285h88.941714V643.657143z" fill="#FFFFFF" p-id="11412"></path></svg>