<?xml version="1.0" standalone="no"?><!DOCTYPE svg PUBLIC "-//W3C//DTD SVG 1.1//EN" "http://www.w3.org/Graphics/SVG/1.1/DTD/svg11.dtd"><svg t="1553598367943" class="icon" style="" viewBox="0 0 1056 1024" version="1.1" xmlns="http://www.w3.org/2000/svg" p-id="6530" xmlns:xlink="http://www.w3.org/1999/xlink" width="206.25" height="200"><defs><style type="text/css"></style></defs><path d="M1006.118742 693.547451c-33.913691 11.096759-70.445719 5.57955-105.419213 6.639353-1.683216 51.244585 4.363894 103.299607-3.584627 154.138973-9.538226 26.214535-40.646556 24.998879-63.432317 25.684633-78.518923 0.218195-156.944333-0.374048-235.463256-0.124682v112.370272h-69.292404C358.080472 961.17884 186.859971 932.470651 15.920006 902.390953c-0.124683-262.238863-0.124683-524.446555 0-786.685419C187.763921 85.719348 359.8572 56.200722 531.669944 25.715804h66.549385v202.297661h78.830629c3.179409-40.147825-14.83724-103.829508 35.565737-120.287623 69.666452-8.135545 140.361536-0.779267 210.464377-3.74048 27.679557 2.524824 63.058269-6.670524 83.911449 16.988016 5.984769 16.084067 5.11199 33.726667 5.984769 50.714683-0.374048 153.515559-0.623413 307.218143 0.062341 460.671361-0.436389 20.479131-0.062341 41.644018-6.919889 61.188029zM380.803892 344.467096c-50.652342-45.976741-124.7762-19.325817-185.839546-21.289569-0.46756 119.633039 0.561072 239.047883-0.592243 358.680922 22.536396 2.431312 45.135133 4.706771 67.765041 6.98223-0.062341-44.200013 0-88.213002 0.124683-132.319502 27.617215 1.122144 56.699452 2.836531 82.13472-10.223981 71.536692-35.191689 84.44135-142.85519 36.407345-201.8301z m217.415437-82.789305c-0.124683 18.827086-0.124683 37.467148 0 56.231892h190.483976v157.380723h-190.483976c-0.124683 18.764745-0.124683 37.404806 0 56.169551h190.483976c-0.124683 14.961923-0.124683 30.048528 0 44.916938h-190.483976c-0.124683 18.827086-0.124683 37.467148 0 56.231892h190.483976c-0.124683 14.961923-0.124683 29.986186 0 44.948109h-190.483976c-0.124683 18.764745-0.124683 37.467148 0 56.231892h190.483976c-0.124683 14.930752-0.124683 29.955016 0 44.916939h-190.483976c-0.124683 22.505225-0.124683 44.948109 0 67.453334h257.625603V261.677791h-257.625603z m380.905611-123.591714c-82.57111 1.776728-165.485097-3.927505-247.806842 3.366432 45.758546 49.249662 116.547142 66.642897 169.163237 108.473939 0.529901 135.062522 0 270.062702 0.218194 405.187564h78.425411V138.086077zM263.851531 496.392951c-2.275459-37.529489-1.901411-75.183661-1.652046-112.806662 22.100006-1.246827 49.904246-5.267844 64.710315 16.177579 12.343586 22.006494 11.408466 50.652342 0.966291 73.251079-12.935829 23.066297-41.612847 20.790838-64.02456 23.378004z" fill="#077467" p-id="6531"></path></svg>