<?xml version="1.0" standalone="no"?><!DOCTYPE svg PUBLIC "-//W3C//DTD SVG 1.1//EN" "http://www.w3.org/Graphics/SVG/1.1/DTD/svg11.dtd"><svg t="1554950304833" class="icon" style="" viewBox="0 0 1210 1024" version="1.1" xmlns="http://www.w3.org/2000/svg" p-id="21038" xmlns:xlink="http://www.w3.org/1999/xlink" width="236.328125" height="200"><defs><style type="text/css"></style></defs><path d="M91.136 744.727273V17.687273h301.056c31.371636 0 60.229818 6.702545 86.574545 20.014545 26.251636 13.218909 48.965818 30.72 68.049455 52.130909 19.083636 21.597091 34.164364 45.986909 45.056 73.262546 10.891636 27.275636 16.384 54.923636 16.384 82.944 0 30.068364-5.12 58.833455-15.36 86.574545-10.24 27.648-24.576 52.037818-43.008 73.169455-18.432 21.131636-40.401455 38.167273-66.094545 51.2-25.6 13.032727-53.992727 19.456-85.457455 19.456h-235.52V744.727273h-71.68z m71.68-331.776h232.448c21.131636 0 40.401455-4.654545 57.809455-13.870546 17.501091-9.216 32.302545-21.410909 44.590545-36.864 12.288-15.36 21.876364-33.047273 28.672-53.154909 6.795636-20.200727 10.24-41.146182 10.24-63.022545 0-22.528-3.909818-43.845818-11.729455-63.953455a173.893818 173.893818 0 0 0-31.744-52.782545 144.942545 144.942545 0 0 0-47.19709-35.374546 131.630545 131.630545 0 0 0-56.785455-12.753454H162.816v331.776zM744.448 908.567273a276.759273 276.759273 0 0 0 30.72 2.048 68.887273 68.887273 0 0 0 29.137455-5.12c7.168-3.444364 14.242909-10.891636 21.038545-22.528 6.795636-11.636364 14.522182-28.299636 23.086545-50.176 8.471273-21.876364 20.573091-51.2 36.305455-88.064L652.288 211.223273h71.68L921.6 680.215273l183.296-468.992h66.56l-276.48 688.128c-7.447273 19.828364-19.921455 37.050182-37.422545 51.665454-17.408 14.708364-41.053091 22.062545-71.121455 22.062546a239.616 239.616 0 0 1-41.984-3.072v-61.44z" fill="#28B83F" p-id="21039"></path></svg>