<?xml version="1.0" standalone="no"?><!DOCTYPE svg PUBLIC "-//W3C//DTD SVG 1.1//EN" "http://www.w3.org/Graphics/SVG/1.1/DTD/svg11.dtd"><svg t="1554950404778" class="icon" style="" viewBox="0 0 1024 1024" version="1.1" xmlns="http://www.w3.org/2000/svg" p-id="24816" xmlns:xlink="http://www.w3.org/1999/xlink" width="200" height="200"><defs><style type="text/css"></style></defs><path d="M196.023083 0.00027H634.879968v257.462932h255.121932v701.000815a64.179983 64.179983 0 0 1-64.364983 64.365983H196.023083a64.179983 64.179983 0 0 1-64.365983-64.365983V64.366253A64.179983 64.179983 0 0 1 196.023083 0.00027z" fill="#9FD13B" p-id="24817"></path><path d="M825.636917 1022.83H196.023083a64.179983 64.179983 0 0 1-64.365983-64.365983V64.366253A64.179983 64.179983 0 0 1 196.023083 0.00027H634.879968v257.462932h255.121932v701.000815c0 35.108991-29.256992 64.365983-64.364983 64.365983zM196.023083 46.810258c-9.947997 0-17.553995 7.606998-17.553995 17.554995v894.097764c0 9.946997 7.605998 17.553995 17.553995 17.553996h629.613834c9.946997 0 17.553995-7.606998 17.553996-17.553996v-654.189827H588.06898V46.811258H196.023083z" fill="#7DA331" p-id="24818"></path><path d="M634.879968 0.00027l257.462932 257.462932H634.879968z" fill="#7DA331" p-id="24819"></path><path d="M283.21006 866.011042h-43.300988v-205.969946h86.599977c45.056988 0 73.143981 25.160993 73.143981 66.120983 0 26.331993-13.458996 49.151987-37.449991 58.514984l43.300989 81.333979h-48.566987l-38.03399-74.897981h-35.108991v74.897981z m0-107.665972h38.03299c21.649994 0 34.523991-11.702997 34.523991-31.597992 0-19.309995-13.457996-31.596992-35.108991-31.596991H283.21006v63.194983z m269.749929 58.513985h-71.972981l-15.797996 49.151987h-43.300988l71.386981-205.969946h50.907987l71.386981 205.969946H568.759985L552.959989 816.860055z m-63.194983-33.352992h53.832986l-25.746994-80.749978h-2.339999l-25.745993 80.749978z m197.192948 82.504979h-43.299989v-205.969946h86.599977c45.055988 0 73.142981 25.160993 73.142981 66.120983 0 26.331993-13.457996 49.151987-37.44899 58.514984l43.299989 81.333979h-48.565988l-38.619989-74.897981h-35.107991v74.897981z m0-107.665972h38.03399c21.649994 0 34.522991-11.702997 34.522991-31.597992 0-19.309995-13.457996-31.596992-35.107991-31.596991h-37.44999v63.194983z" fill="#FFFFFF" p-id="24820"></path></svg>