<?xml version="1.0" standalone="no"?><!DOCTYPE svg PUBLIC "-//W3C//DTD SVG 1.1//EN" "http://www.w3.org/Graphics/SVG/1.1/DTD/svg11.dtd"><svg t="1553512808323" class="icon" style="" viewBox="0 0 1055 1024" version="1.1" xmlns="http://www.w3.org/2000/svg" p-id="5590" xmlns:xlink="http://www.w3.org/1999/xlink" width="206.0546875" height="200"><defs><style type="text/css"></style></defs><path d="M1044.48 141.784615c3.150769-26.781538-18.904615-47.261538-45.686154-45.686153-126.030769-1.575385-253.636923 0-381.243077 0v-94.523077h-70.892307c-181.169231 31.507692-363.913846 63.015385-545.083077 94.523077v830.227692c181.169231 31.507692 362.338462 61.44 543.507692 94.523077h74.043077v-94.523077h356.036923c20.48-1.575385 42.535385 0 59.864615-11.027692 14.178462-20.48 9.452308-47.261538 11.027693-72.467693-1.575385-233.156923 0-467.889231-1.575385-701.046154zM396.996923 672.689231c-20.48 9.452308-48.836923 0-72.467692 1.575384-15.753846-78.769231-34.658462-155.963077-47.261539-234.732307-14.178462 77.193846-31.507692 152.812308-47.261538 228.430769-22.055385-1.575385-45.686154-3.150769-69.316923-4.726154-20.48-103.975385-42.535385-207.950769-61.44-313.501538 20.48-1.575385 40.96-1.575385 61.44-3.15077 12.603077 75.618462 25.206154 151.236923 36.233846 226.855385l50.412308-233.156923c22.055385-1.575385 44.110769-1.575385 67.741538-3.150769 15.753846 80.344615 31.507692 159.113846 48.836923 239.458461 14.178462-81.92 28.356923-163.84 42.535385-247.335384 23.630769-1.575385 47.261538-1.575385 70.892307-3.15077-26.781538 115.003077-50.412308 231.581538-80.344615 346.584616z m612.824615 217.403077H617.550769v-94.523077h308.775385v-47.261539H617.550769v-59.864615h308.775385v-47.261539H617.550769v-59.864615h308.775385v-47.261538H617.550769v-59.864616h308.775385v-47.261538H617.550769v-58.289231h308.775385v-47.261538H617.550769v-58.289231h308.775385v-47.261539H617.550769V130.756923H1008.246154v759.335385z" fill="#53CB8B" p-id="5591"></path></svg>