<?xml version="1.0" standalone="no"?><!DOCTYPE svg PUBLIC "-//W3C//DTD SVG 1.1//EN" "http://www.w3.org/Graphics/SVG/1.1/DTD/svg11.dtd"><svg t="1554950397284" class="icon" style="" viewBox="0 0 1024 1024" version="1.1" xmlns="http://www.w3.org/2000/svg" p-id="24002" xmlns:xlink="http://www.w3.org/1999/xlink" width="200" height="200"><defs><style type="text/css"></style></defs><path d="M631.5 63.9H183.4c-11.2 0-23.2 4.5-31.4 13.4-8.2 9-13.4 20.2-13.4 31.4v806.6c0 11.2 4.5 23.2 13.4 31.4 9 9 20.2 13.4 31.4 13.4h657.2c11.2 0 23.2-4.5 31.4-13.4 9-9 13.4-20.2 13.4-31.4V317.8L631.5 63.9z m19.7 312.9L480.9 613.4H651v67.4H370.8v-45.8l173.3-235.5H384v-67.3h267.2v44.6z" fill="#72E8D7" p-id="24003"></path><path d="M885.3 317.8H676.2c-11.2 0-23.2-4.5-31.4-13.4-9-8.2-13.4-20.2-13.4-31.4V63.9l253.9 253.9z" fill="#D9FFF9" p-id="24004"></path></svg>